<svg width="37" height="40" viewBox="0 0 37 40" fill="none" xmlns="http://www.w3.org/2000/svg">
<g clip-path="url(#clip0)">
<path d="M25.0484 11.4791C25.0504 11.8524 24.9745 12.2219 24.8257 12.5642V12.5928C24.6948 12.8686 24.4974 13.1076 24.2511 13.288C24.0048 13.4685 23.7175 13.5848 23.415 13.6264L24.3745 15.197C24.3745 15.197 27.23 15.1627 27.3614 11.5019V9.60018H29.0747V15.0599H31.3591V7.76123H25.0484V11.4791Z" fill="white"/>
<path d="M12.8667 7.87549H10.4338L8.08661 10.4797V7.87549H5.81934V15.0542H8.08661V13.3238L8.96611 12.3187L10.8051 15.0542H13.2094L10.331 10.771L12.8667 7.87549Z" fill="white"/>
<path d="M19.9427 32.3073H22.4783L19.9141 28.7207L22.4898 25.1228H19.9541L18.6463 26.9503L17.3384 25.1228H14.8027L17.3784 28.7207L14.8142 32.3073H17.3498L18.6463 30.4912L19.9427 32.3073Z" fill="white"/>
<path d="M2.96356 23.7464C5.04984 28.8122 8.39092 33.2637 12.6723 36.6819C14.3615 38.0498 16.2511 39.1496 18.2748 39.9429L18.4576 40L18.6574 39.9372C20.6835 39.1478 22.5753 38.0497 24.2657 36.6819C28.5474 33.264 31.8886 28.8124 33.9744 23.7464C37.1383 16.3678 36.9441 3.36379 36.9384 3.25528V2.85551L36.5786 2.66705C36.3902 2.55283 31.4102 0 18.4804 0C5.55065 0 0.57064 2.55283 0.365043 2.66134L-0.000462277 2.85551V3.24957C-0.000462277 3.3695 -0.183215 16.3963 2.96356 23.7464ZM26.0475 3.08395C31.3016 3.56368 33.7517 4.44889 34.2314 4.64306V4.77441C34.4782 9.64095 33.952 14.5158 32.6723 19.2176H23.4661L23.409 19.1205L23.449 19.189L19.8225 13.2553L26.0532 3.0554L25.9904 3.17533L26.0475 3.08395ZM17.401 36.1565C14.3883 34.5637 11.738 32.3645 9.6169 29.6973C8.21173 27.8638 7.03962 25.863 6.12746 23.7407H13.4204L18.6175 15.3055V15.3398L23.7574 23.7636H31.0732C29.9698 26.3575 28.4667 28.7624 26.6186 30.8909C25.2103 32.4484 23.6165 33.8274 21.8728 34.9971C20.9042 35.6133 19.8926 36.1592 18.8459 36.6305L18.5946 36.7276C18.5946 36.7276 18.1549 36.5505 17.3953 36.1565H17.401ZM4.56836 19.2176C3.2779 14.5157 2.74391 9.63842 2.9864 4.7687V4.64306C3.46613 4.44889 5.90473 3.56939 11.1417 3.08395L17.3782 13.2781L13.7574 19.2176H4.56836ZM18.6175 11.2621L13.5232 2.90691C15.0367 2.81553 16.7214 2.76413 18.6175 2.76413C20.5135 2.76413 22.204 2.82124 23.7117 2.90691L18.6175 11.2621Z" fill="white"/>
</g>
<defs>
<clipPath id="clip0">
<rect width="36.9617" height="40" fill="white"/>
</clipPath>
</defs>
</svg>
